<?xml version="1.0" encoding="UTF-8"?>
<svg id="Layer_1" xmlns="http://www.w3.org/2000/svg" version="1.1" viewBox="0 0 1000 767.38">
  <!-- Generator: Adobe Illustrator 30.1.0, SVG Export Plug-In . SVG Version: 2.1.1 Build 136)  -->
  <defs>
    <style>
      .st0 {
        fill: #020202;
      }
    </style>
  </defs>
  <circle class="st0" cx="639.04" cy="266.17" r="84.21"/>
  <circle class="st0" cx="358.5" cy="266.17" r="84.21"/>
  <path class="st0" d="M0,0v767.38h1000V0H0ZM404.36,459.51v62.1H59.55c-19.11,0-34.61-15.45-34.61-34.52v-27.59c0-19.06,15.49-34.52,34.61-34.52h344.81v34.52ZM580.08,655.71c0,30.7-25.18,55.82-55.96,55.82h-48.74c-30.78,0-55.96-25.12-55.96-55.82v-243.84H138.74c0-.3-.01-.6-.01-.91,0-198.87,161.63-360.09,361.02-360.09s361.02,161.22,361.02,360.09c0,.3-.01.6-.01.91h-280.68v243.84ZM975.05,487.1c0,19.06-15.49,34.52-34.61,34.52h-344.81v-96.62h344.81c19.11,0,34.61,15.45,34.61,34.52v27.59Z"/>
</svg>