<?xml version="1.0" encoding="UTF-8"?>
<svg id="Layer_1" xmlns="http://www.w3.org/2000/svg" version="1.1" viewBox="0 0 518.03 181.97">
  <!-- Generator: Adobe Illustrator 30.1.0, SVG Export Plug-In . SVG Version: 2.1.1 Build 136)  -->
  <defs>
    <style>
      .st0 {
        fill: #f5ad1e;
      }

      .st1 {
        isolation: isolate;
      }

      .st2 {
        fill: #f6ad1e;
      }
    </style>
  </defs>
  <g class="st1">
    <path class="st2" d="M40.96,120.91l-17.11-35.89v23.8c0,2.13.15,3.7.44,4.7.29,1.01.98,1.86,2.05,2.56,1.07.7,2.38,1.05,3.92,1.05v3.77H13.7v-3.77c1.45,0,2.71-.38,3.77-1.14s1.71-1.63,1.95-2.62c.24-.98.36-2.56.36-4.74v-24.21c0-2.31-.4-3.85-1.21-4.63-.8-.78-2.43-1.17-4.87-1.17v-3.77h18.44l14.19,30.25,14.33-30.25h18.51v3.77h-.92c-2.31,0-3.81.42-4.5,1.27-.69.85-1.04,2.3-1.04,4.36v27.23c0,2.1.36,3.57,1.07,4.4.71.83,2.2,1.24,4.47,1.24h1.05v3.77h-25.06v-3.77h.92c2.29,0,3.77-.42,4.46-1.27.69-.85,1.04-2.3,1.04-4.36v-27.06l-17.05,36.47h-2.65Z"/>
    <path class="st2" d="M97.84,98.98c1.31-2.33,2.81-4.08,4.48-5.25,1.67-1.17,3.52-1.75,5.53-1.75s3.38.61,4.38,1.82c1,1.21,1.49,2.53,1.49,3.96,0,1.34-.4,2.48-1.19,3.43-.79.95-1.9,1.43-3.33,1.43-.77,0-1.4-.15-1.9-.44-.5-.29-1.15-.91-1.97-1.83-.81-.9-1.7-1.36-2.65-1.36-1.47,0-2.58.9-3.31,2.7-.74,1.8-1.1,4.5-1.1,8.1v3.02c0,1.68.26,2.85.78,3.51.52.67,1.72,1,3.6,1h.68v3.6h-20.61v-3.6c1.97,0,3.21-.33,3.73-.98.52-.66.78-1.83.78-3.53v-9.71c0-1.72-.27-2.9-.8-3.55-.53-.64-1.79-.97-3.79-.97v-3.6l14.09-2.99c.63,1.83,1,4.17,1.09,7Z"/>
  </g>
  <path class="st0" d="M491.01,50.95c0-12.39-10.07-22.44-22.5-22.44s-22.5,10.05-22.5,22.44c0,.02,0,.04,0,.06h17.49v15.2c0,1.91,1.57,3.48,3.49,3.48h3.04c1.92,0,3.49-1.57,3.49-3.48v-15.2h17.49s0-.04,0-.06h0ZM459.71,47.18c-2.9,0-5.25-2.35-5.25-5.25s2.35-5.25,5.25-5.25,5.25,2.35,5.25,5.25-2.35,5.25-5.25,5.25ZM477.19,47.18c-2.9,0-5.25-2.35-5.25-5.25s2.35-5.25,5.25-5.25,5.25,2.35,5.25,5.25-2.35,5.25-5.25,5.25Z"/>
  <path class="st0" d="M495.98,51.83h-21.49v6.02h21.49c1.19,0,2.16-.96,2.16-2.15v-1.72c0-1.19-.97-2.15-2.16-2.15h0Z"/>
  <path class="st0" d="M451.52,51.83h-10.45c-1.19,0-2.16.96-2.16,2.15v1.72c0,1.19.97,2.15,2.16,2.15h21.49v-6.02h-11.04,0Z"/>
  <g class="st1">
    <path class="st2" d="M158.45,97.67v28.37c0,4.82.84,8.13,2.51,9.93s5.27,2.7,10.8,2.7v8.44h-53.77v-8.44c5.42,0,9.04-.85,10.84-2.55,1.8-1.7,2.7-5.06,2.7-10.08v-61c0-4.87-.85-8.19-2.55-9.96-1.7-1.77-5.36-2.66-10.99-2.66v-8.44h53.77v8.44c-5.38,0-8.94.88-10.69,2.62-1.75,1.75-2.62,5.08-2.62,10v23.12h42.36v-23.12c0-4.76-.82-8.06-2.47-9.89-1.65-1.83-5.18-2.74-10.61-2.74v-8.44h53.62v8.44c-5.48,0-9.11.84-10.91,2.51-1.8,1.67-2.7,5.05-2.7,10.12v61c0,4.92.86,8.25,2.59,10,1.72,1.75,5.4,2.62,11.03,2.62v8.44h-53.62v-8.44c5.32,0,8.83-.89,10.53-2.66,1.7-1.77,2.55-5.1,2.55-9.96v-28.37h-42.36Z"/>
    <path class="st2" d="M284.09,82.31v46.62c0,3.85.61,6.5,1.83,7.95s4.06,2.17,8.52,2.17v8.06h-46.55v-8.06h1.75c4.31,0,7.04-.76,8.18-2.28,1.14-1.52,1.71-4.13,1.71-7.83v-22.67c0-3.75-.58-6.38-1.75-7.87-1.17-1.5-3.88-2.24-8.14-2.24h-1.75v-8.06l36.2-5.78ZM258.46,55.92c0-3.75,1.34-6.98,4.03-9.7,2.69-2.71,5.91-4.07,9.66-4.07s7.02,1.34,9.66,4.03c2.64,2.69,3.96,5.93,3.96,9.74s-1.33,7.05-3.99,9.74c-2.66,2.69-5.87,4.03-9.62,4.03s-7.16-1.38-9.77-4.14c-2.61-2.76-3.92-5.97-3.92-9.62Z"/>
    <path class="st2" d="M355.74,138.44c-3.55,3.35-7.31,5.87-11.29,7.57-3.98,1.7-8.18,2.55-12.59,2.55-8.16,0-14.96-2.62-20.38-7.87-5.43-5.25-8.14-13.25-8.14-24,0-11.91,3.04-20.62,9.13-26.13,6.08-5.5,13.31-8.25,21.68-8.25,4.61,0,8.72.68,12.32,2.05,3.6,1.37,6.69,3.42,9.28,6.16v-24.57c0-3.8-.6-6.43-1.79-7.87-1.19-1.44-3.97-2.17-8.33-2.17v-8.14l34.68-5.63v84.57c0,4.31.72,7.09,2.17,8.33,1.44,1.24,4.22,1.86,8.33,1.86v8.59c-14.81.56-25.88,1.57-33.24,3.04-1.22-2.64-1.83-6.01-1.83-10.12ZM355.74,127.94v-28.29c-2.18-2.13-4.37-3.71-6.58-4.75-2.21-1.04-4.4-1.56-6.58-1.56-4.41,0-7.72,1.75-9.92,5.25-2.21,3.5-3.31,8.77-3.31,15.82,0,7.61,1,13.31,3,17.11,2,3.8,5.01,5.7,9.01,5.7,2.74,0,5.49-.85,8.25-2.55,2.76-1.7,4.8-3.94,6.12-6.73Z"/>
    <path class="st2" d="M426.09,115.24c0,8.27,1.41,14.48,4.22,18.63,2.81,4.16,7.04,6.24,12.66,6.24,5.98,0,11.48-3.04,16.5-9.13l7.07,4.26c-2.89,4.16-7.04,7.59-12.43,10.3-5.4,2.71-11.37,4.07-17.91,4.07-10.04,0-18.63-3.05-25.78-9.16-7.15-6.11-10.72-14.36-10.72-24.76s3.46-18.56,10.38-24.49c6.92-5.93,15.25-8.9,24.98-8.9s17.81,2.73,24.07,8.18c6.26,5.45,9.39,13.7,9.39,24.76h-42.44ZM426.01,107.56h19.24c-.3-11.21-3.58-16.81-9.81-16.81-3.14,0-5.5,1.4-7.07,4.18-1.57,2.79-2.36,7-2.36,12.62Z"/>
  </g>
</svg>